<svg xmlns="http://www.w3.org/2000/svg" version="1.1" xmlns:xlink="http://www.w3.org/1999/xlink" viewBox="0 0 9.649974467671266 9.649974467671266"><g transform="matrix(1,0,0,1,3.029896116248069,3.223743099925473)"><g><path d=" M -0.8855822072806283 0.3013901696082864 Q -0.966880311138705 0.35080543353636207 -1.0607678888577194 0.3523458068859229 Q -1.1546554665767337 0.35388618023548374 -1.2417354691778204 0.30472244210467475 Q -1.328815471778907 0.2555587039738658 -1.3759974982736527 0.17437307485239445 Q -1.4231795247683985 0.09318744573092302 -1.4228658233293323 -0.0019500946588049128 Q -1.4225521218902661 -0.09708763504853302 -1.371913471615533 -0.18678003772765206 Q -1.3212748213407997 -0.2764724404067713 -1.2404121174957283 -0.3261335230255009 Q -1.159549413650657 -0.37579460564423073 -1.0656618359316428 -0.37733497899379154 Q -0.9717742582126284 -0.37887535234335235 -0.883823455585531 -0.3292199768312354 Q -0.7958726529584336 -0.2795646013191183 -0.7486906264636878 -0.19837897219764677 Q -0.7015085999689419 -0.11719334307617546 -0.7022577014210135 -0.022301621377101566 Q -0.7030068028730851 0.07259010032197244 -0.7536454531478184 0.1622825030010916 Q -0.8042841034225516 0.25197490568021075 -0.8855822072806283 0.3013901696082864 M -0.7512347117827775 -0.018947153308439768 Q -0.7511604587503377 -0.10043945040753488 -0.7923947279504719 -0.1708026868562007 Q -0.8336289971506063 -0.24116592330486641 -0.9093885994135517 -0.2839383754786703 Q -0.985148201676497 -0.32671082765247406 -1.0666967361438946 -0.32566846196824895 Q -1.1482452706112922 -0.3246260962840237 -1.2179835257246012 -0.2824647896895759 Q -1.2877217808379102 -0.24030348309512806 -1.3309858703930222 -0.16367308080617193 Q -1.3742499599481341 -0.08704267851721581 -1.3745700316712277 -0.005114981405115238 Q -1.3748901033943217 0.07681271570698522 -1.3336558341941873 0.14717595215565105 Q -1.292421564994053 0.2175391886043168 -1.2166619627311077 0.26031164077812063 Q -1.1409023604681625 0.30308409295192446 -1.0593538260007647 0.3020417272676993 Q -0.977805291533367 0.3009993615834741 -0.907821217729404 0.25840265497602083 Q -0.837837143925441 0.21580594836856754 -0.7945730543703291 0.1391755460796114 Q -0.7513089648152171 0.06254514379065523 -0.7512347117827775 -0.018947153308439768 M 0.044210769727718535 -0.7702571846777851 L -0.3604108808091702 -1.2119395591470457 L -0.23561224360323907 -0.6407037933274127 L -0.25407454063319035 -0.6238472341180766 L -0.8102808954844338 -0.7984882683084774 L -0.40774626156549 -0.3576086152332397 L -0.44467085562539266 -0.32389549681456775 L -0.9166545134868007 -0.8408398136532049 L -0.8848993625952845 -0.8698330954932628 L -0.28897546249026274 -0.6813531090660029 L -0.4226034449653033 -1.2919213380950365 L -0.39158678595498503 -1.320240357566721 L 0.0811353637876211 -0.8039703030964571 L 0.044210769727718535 -0.7702571846777851 M 0.4698503546760554 -1.7308683917207723 L 0.23503423595494335 -1.639405883616344 L 0.21833869876127787 -1.6822691433828965 L 0.7354932459446795 -1.8837044290890776 L 0.752188783138345 -1.8408411693225253 L 0.5173726644172328 -1.7493786612180973 L 0.754739649735868 -1.1399749245371158 L 0.7072173399946906 -1.121464655039791 L 0.4698503546760554 -1.7308683917207723 M 1.62650317021621 -1.3362806615654428 L 1.4281259454429374 -1.5443467008204217 Q 1.3922031136982846 -1.5341707409420928 1.3615139015087165 -1.5297921275561372 L 1.1635189841566647 -1.5015430089370696 L 1.1958642249754974 -1.2748388285689702 L 1.1453755210507242 -1.2676353033211079 L 1.0465036058839867 -1.9606175140532893 L 1.2949872271608118 -1.9960701579202194 Q 1.425663872613166 -2.014714576208804 1.508739816188644 -1.9634345840184384 Q 1.5918157597641223 -1.9121545918280727 1.6074940205977049 -1.8022674126976839 Q 1.6192174048246182 -1.7200995219965824 1.5851238608971938 -1.6581630201380757 Q 1.5510303169697695 -1.5962265182795692 1.4760709732569017 -1.5622987009295515 L 1.683921696248305 -1.3444729059649725 L 1.62650317021621 -1.3362806615654428 M 1.3551578498194263 -1.574340983960349 Q 1.4660350035365752 -1.590160490387027 1.5174518472972114 -1.6474977224242848 Q 1.5688686910578473 -1.7048349544615427 1.5560153420861713 -1.7949226418567261 Q 1.5431619931144955 -1.8850103292519098 1.4777618356374211 -1.9256805813039177 Q 1.4123616781603463 -1.9663508333559254 1.3014845244431974 -1.9505313269292475 L 1.1034896070911455 -1.9222822083101796 L 1.1571629324673744 -1.5460918653412812 L 1.3551578498194263 -1.574340983960349 M 2.3466665230517965 -1.485291541001908 L 1.9432198512533783 -1.5307534262991471 L 1.8327204788553109 -1.344958139223201 L 1.778066373069811 -1.3511167690048467 L 2.1764238805258653 -2.010658501007758 L 2.227103142254238 -2.004947771573868 L 2.468695527995675 -1.273294083582233 L 2.414041422210175 -1.2794527133638787 L 2.3466665230517965 -1.485291541001908 M 2.3326009425188197 -1.5301486412678675 L 2.1949960510143263 -1.9522113070345006 L 1.9679090002773922 -1.5712434981744852 L 2.3326009425188197 -1.5301486412678675 M 2.8866771141832483 -1.8749207612515257 L 3.143481291730135 -1.7710910237267343 Q 3.244534199140282 -1.7302338345924302 3.306005732765178 -1.656841051883207 Q 3.367477266390075 -1.5834482691739842 3.3812510288864024 -1.4921272230417 Q 3.3950247913827303 -1.400806176909416 3.3571662950289256 -1.3071699966486379 Q 3.319307798675121 -1.2135338163878595 3.2459350171663677 -1.1574474104264432 Q 3.1725622356576144 -1.101361004465027 3.0773554082521 -1.0913156067438536 Q 2.9821485808465855 -1.0812702090226802 2.881095673436439 -1.1221273981569844 L 2.624291495889552 -1.2259571356817756 L 2.8866771141832483 -1.8749207612515257 M 2.8946297933496257 -1.1662729256561033 Q 2.98455761003572 -1.1299137756925481 3.0675935451735326 -1.1378688668792651 Q 3.150629480311345 -1.1458239580659821 3.2135768412899948 -1.194799765826789 Q 3.276524202268645 -1.243775573587596 3.3098846594517006 -1.3262866631243213 Q 3.3432451166347565 -1.4087977526610467 3.332025206119721 -1.4877604882268476 Q 3.320805295604685 -1.5667232237926485 3.266631778479179 -1.630154131418604 Q 3.212458261353673 -1.6935850390445597 3.1225304446675795 -1.7299441890081146 L 2.9167162662726014 -1.8131579136669727 L 2.688815614954648 -1.2494866503149613 L 2.8946297933496257 -1.1662729256561033 M 3.7833294165219593 -1.4381905035324003 L 3.825811974663159 -1.4099729158647842 L 3.43851175177431 -0.8268789805934181 L 3.396029193633111 -0.8550965682610342 L 3.7833294165219593 -1.4381905035324003 M 4.566984350557486 -0.7627419413550531 L 4.071540051442865 -0.26823719266721524 L 4.041869766521595 -0.2979638506140925 L 4.135228864718154 -1.0650864475853492 L 3.7049001020585965 -0.6355737515821986 L 3.668871898939911 -0.6716704076605496 L 4.164316198054532 -1.1661751563483875 L 4.1946929183310715 -1.1357407208313466 L 4.100627384779244 -0.36932590143025346 L 4.5309561474388005 -0.798838597433404 L 4.566984350557486 -0.7627419413550531 M 4.781538083494123 0.2273105015496305 L 4.805153838392794 0.2702441261411538 L 4.5755903762911805 0.39651612172180795 Q 4.514867841446978 0.3774170703816344 4.463147324886405 0.33111115103315847 Q 4.411426808325833 0.2848052316846825 4.376244153068628 0.2208428930075152 Q 4.32612091818165 0.12971846530305764 4.326182779348405 0.03438617185956577 Q 4.326244640515159 -0.060946121583926136 4.374323726927944 -0.1416037402551462 Q 4.422402813340729 -0.22226135892636625 4.510898651784482 -0.27093873126852686 Q 4.599394490228233 -0.3196161036106874 4.693259223893546 -0.3170350623595664 Q 4.787123957558858 -0.31445402110844545 4.867672167053739 -0.26346151237266413 Q 4.94822037654862 -0.21246900363688287 4.998825565617203 -0.12046837951219014 Q 5.03593603760083 -0.053001255154082105 5.045555270018626 0.015321291400422266 Q 5.055174502436423 0.08364383795492664 5.036163163039225 0.1466007198212052 L 4.990949950939852 0.13494887654826854 Q 5.008296609439555 0.07519025006727692 4.999115936736638 0.018039438623151938 Q 4.989935264033722 -0.039111372820972934 4.9581262880477555 -0.09694033655649409 Q 4.914750411703256 -0.1757980143776593 4.844760876727447 -0.22004408758048702 Q 4.774771341751638 -0.2642901607833148 4.693239372679231 -0.26623644420976544 Q 4.6117074036068235 -0.2681827276362161 4.5354783150463645 -0.22625271383653323 Q 4.46012542290614 -0.18480465421845593 4.41835467381619 -0.11446473297550513 Q 4.3765839247262415 -0.044124811732554337 4.375798670782316 0.03848047487940259 Q 4.375013416838392 0.12108576149135952 4.418389293182892 0.19994343931252473 Q 4.4762237949755574 0.305087009740745 4.570374746217447 0.3434614593165681 L 4.781538083494123 0.2273105015496305" fill="#0e0904" fill-rule="nonzero"></path></g><g><path d=" M -1.6364019785288009 2.6895488680986186 Q -1.6209634118053204 2.595474957488266 -1.5600322768331516 2.5234617865332014 Q -1.4991011418609825 2.451448615578137 -1.4039123094532364 2.4176834532825104 Q -1.30872347704549 2.3839182909868843 -1.2160330310031773 2.4014391703163334 Q -1.1233425849608647 2.418960049645783 -1.0519073381926574 2.482748806642336 Q -0.9804720914244499 2.546537563638889 -0.9457040035160821 2.6445537871082516 Q -0.9196279375848062 2.7180659547102737 -0.9220676299718364 2.7889605800429225 Q -0.9245073223588667 2.8598552053755713 -0.956252313990436 2.919923961866043 L -1.0162606085553718 2.8913406698336708 Q -0.9654494225989205 2.786311038863649 -1.007237989796478 2.668503077962973 Q -1.0349855984156564 2.590278591924924 -1.0935321990849332 2.5388947856230137 Q -1.15207879975421 2.4875109793211037 -1.2271522818066145 2.4732904908440054 Q -1.3022257638590191 2.4590700023669076 -1.3795077862098628 2.4864833024485056 Q -1.456789808560706 2.513896602530103 -1.5061215332194156 2.5722458179678216 Q -1.5554532578781246 2.63059503340554 -1.5685338974364589 2.7073862885635656 Q -1.5816145369947932 2.784177543721591 -1.553866928375615 2.8624020297596395 Q -1.511744052640477 2.981152454347521 -1.4054981113712055 3.029410095854401 L -1.434081403403578 3.0894183904193366 Q -1.4965827804925496 3.0627804876869105 -1.5437895859525936 3.008965828733633 Q -1.5909963914126375 2.955151169780356 -1.6170724573439132 2.881639002178334 Q -1.651840545252281 2.7836227787089713 -1.6364019785288009 2.6895488680986186 M -1.2622168754573506 3.5063437333291834 Q -1.2724591837948394 3.4104396399863033 -1.2332332035452815 3.3251250898001756 Q -1.194007223295724 3.239810539614048 -1.1111917991056899 3.181995268999575 Q -1.0283763749156556 3.1241799983851024 -0.9347696945831782 3.116761144219304 Q -0.8411630142507007 3.1093422900535055 -0.7546649192827847 3.1520105401573164 Q -0.6681668243148685 3.1946787902611273 -0.6086342684346195 3.279954078536014 Q -0.5491017125543705 3.365229366810901 -0.5390218552913322 3.4600272912478673 Q -0.5289419980282936 3.5548252156848337 -0.5682917414143638 3.6408359574293994 Q -0.6076414848004341 3.726846699173965 -0.6904569089904684 3.784661969788438 Q -0.7732723331805026 3.8424772404029106 -0.8675752050714182 3.8497723314321965 Q -0.9618780769623337 3.8570674224614825 -1.047393766160849 3.8149329128416594 Q -1.1329094553593642 3.7727984032218362 -1.192442011239613 3.68752311494695 Q -1.251974567119862 3.602247826672063 -1.2622168754573506 3.5063437333291834 M -1.0217124370233812 3.7512699775202885 Q -0.9526114316937183 3.7847408762597894 -0.87633216444632 3.777832664609877 Q -0.8000528971989216 3.7709244529599646 -0.7328166122129534 3.723985322362076 Q -0.6655803272269849 3.6770461917641875 -0.6328056200459224 3.607821423298012 Q -0.6000309128648598 3.5385966548318364 -0.6076353160732102 3.4621936244479254 Q -0.6152397192815604 3.3857905940640145 -0.6627512783013746 3.317734354383095 Q -0.7102628373211887 3.249678114702176 -0.7796500568618143 3.2157972386152 Q -0.8490372764024399 3.181916362528224 -0.9256027578608009 3.1884145968306608 Q -1.002168239319162 3.1949128311330974 -1.0694045243051304 3.241851961730986 Q -1.1366408092910987 3.2887910923288746 -1.1691293022611986 3.3584258381425256 Q -1.2016177952312983 3.4280605839561766 -1.1937271778119853 3.504873591687563 Q -1.1858365603926722 3.5816865994189495 -1.138325001372858 3.6497428390998685 Q -1.090813442353044 3.717799078780788 -1.0217124370233812 3.7512699775202885 M -0.34129365737393713 4.5547519546120485 L -0.32161223789707916 4.279365604682761 Q -0.3443530545555682 4.264504404943002 -0.36672857632553846 4.2460562065073395 L -0.511783682972242 4.126460989062354 L -0.6530078227211085 4.297749466060057 L -0.7101039817203427 4.2506747528104345 L -0.2648026401698629 3.710575951466326 L -0.06265137452392511 3.8772458821609344 Q 0.04073896744766148 3.962489281829169 0.05866500036612088 4.0602167464632535 Q 0.07659103328458006 4.157944211097338 0.0053428186365034325 4.2443600193123965 Q -0.046821052802267116 4.307628736041277 -0.11478337573567088 4.324822416900702 Q -0.18274569866907464 4.342016097760126 -0.2580601861580152 4.312322193094721 L -0.27879651036126174 4.606279681277175 L -0.34129365737393713 4.5547519546120485 M -0.17625235055407074 4.261829836902936 Q -0.10455335657514508 4.261325592507861 -0.05175334036273105 4.197285306062774 Q 0.002318965396970185 4.131701880185275 -0.011172781793571396 4.061607495547513 Q -0.024664528984113088 3.991513110909751 -0.10490777946952357 3.925354054450823 L -0.24841974668381528 3.807031126553124 L -0.4717065622326988 4.077852096941384 L -0.3281945950184071 4.196175024839083 Q -0.2479513445329966 4.262334081298011 -0.17625235055407074 4.261829836902936 M 0.7266758305082277 4.4157317509352065 Q 0.7683319450827819 4.505935786978787 0.7208009761268912 4.607349824419933 Q 0.6732700071710004 4.70876386186108 0.5775049770439812 4.734008841654518 Q 0.48173994691696187 4.759253821447955 0.36040529497844803 4.702386412161443 L 0.19017458927366737 4.622602285699769 L 0.09638580231606148 4.8227139131506025 L 0.029380099006732913 4.791309522947603 L 0.32644865498105025 4.157471788940441 L 0.5636850639951594 4.268660305605114 Q 0.6850197159336733 4.325527714891626 0.7266758305082277 4.4157317509352065 M 0.5494604373702859 4.668958831704552 Q 0.6185714297520364 4.651100479820641 0.6537952728175626 4.575945434216934 Q 0.6898678831858724 4.498979423658922 0.6593758030807833 4.434438870121903 Q 0.6288837229756941 4.369898316584884 0.5347135453517728 4.325762416840128 L 0.36629380460129835 4.246827057681238 L 0.21775952661413966 4.563745924684818 L 0.38617926736461416 4.642681283843709 Q 0.4803494449885354 4.686817183588465 0.5494604373702859 4.668958831704552 M 1.010702891218048 5.117104165022851 Q 0.9351255375026157 5.057182853243381 0.9017763856442105 4.969404244970494 Q 0.8684272337858052 4.881625636697606 0.8852452282665747 4.78203570215779 Q 0.9020632227473442 4.682445767617974 0.9623877716937161 4.610486065044821 Q 1.0227123206400883 4.538526362471667 1.1137755504615756 4.506746051358038 Q 1.204838780283063 4.474965740244411 1.307386831690398 4.492283279115698 Q 1.4099348830977332 4.5096008179869855 1.4846094552557454 4.568862595491696 Q 1.5592840274137576 4.628124372996407 1.5930429413516631 4.716479258145634 Q 1.6268018552895684 4.804834143294861 1.609983860808799 4.904424077834677 Q 1.5931658663280297 5.004014012374492 1.5322650405053182 5.0763834770271465 Q 1.4713642146826065 5.148752941679801 1.3813702812153785 5.180206748112348 Q 1.2913763477481508 5.2116605545448955 1.1888282963408154 5.194343015673608 Q 1.0862802449334803 5.177025476802321 1.010702891218048 5.117104165022851 M 1.3539684211896472 5.117265203270088 Q 1.4262773361123853 5.09144523381433 1.4748200504241096 5.032201205530879 Q 1.523362764735834 4.972957177247428 1.537016978076657 4.892101982868568 Q 1.5506711914174796 4.811246788489708 1.524274945085382 4.73934763564647 Q 1.4978786987532846 4.667448482803233 1.4380583935934945 4.619315530571009 Q 1.3782380884337044 4.571182578338784 1.2963968550990042 4.557361850201122 Q 1.2145556217643039 4.54354112206346 1.1417536873636462 4.569277834120799 Q 1.0689517529629886 4.595014546178136 1.0199160191733443 4.654175317063168 Q 0.9708802853837 4.713336087948199 0.9572260720428772 4.794191282327059 Q 0.9435718587020545 4.875046476705919 0.9704611245120718 4.947028886947577 Q 0.997350390322089 5.019011297189234 1.0576637149597992 5.0672275068198775 Q 1.1179770395975093 5.115443716450522 1.1998182729322093 5.129264444588184 Q 1.2816595062669096 5.143085172725846 1.3539684211896472 5.117265203270088 M 2.4039573509625978 5.195215511577242 L 2.2213508167746765 4.988140999210617 Q 2.194811305516189 4.99394223547202 2.1659696458005553 4.99696856408068 L 1.9789961276440329 5.016587521957505 L 2.0021631949241137 5.237375399780632 L 1.9285672356497376 5.245097755540659 L 1.8555179244062403 4.5489197624046716 L 2.1160874018371385 4.52157844876782 Q 2.24935576052317 4.507594723472636 2.3316195939487687 4.563314214767204 Q 2.4138834273743672 4.619033706061772 2.4255713171733264 4.73042218496353 Q 2.4341285222047078 4.8119744641594595 2.398751235590585 4.8724967542005855 Q 2.3633739489764625 4.933019044241712 2.289403273704486 4.965917968233353 L 2.4845150901683333 5.186762662704781 L 2.4039573509625978 5.195215511577242 M 2.3107376029388536 4.872179788199177 Q 2.3606369190892513 4.820691359909681 2.351975357898951 4.738144540723557 Q 2.343105084390812 4.653608641557043 2.2836571796992997 4.614096660743765 Q 2.2242092750077878 4.574584679930486 2.120777116027584 4.585437720458091 L 1.9357926778514503 4.604847966017078 L 1.9724216896321183 4.953931502575266 L 2.157406127808252 4.9345212570162795 Q 2.2608382867884558 4.923668216488674 2.3107376029388536 4.872179788199177 M 3.1763179963899026 4.770751560621553 L 2.809911245934568 4.904340831226501 L 2.795047211485535 5.108801244216151 L 2.7227053658828155 5.135176561745846 L 2.783571188247542 4.367911710688621 L 2.8521550158968734 4.342906539524105 L 3.392572066074235 4.890947972152697 L 3.319290715983168 4.917665826273686 L 3.1763179963899026 4.770751560621553 M 3.130399179726849 4.723629779285691 L 2.843768667357729 4.42792223900473 L 2.814725671642253 4.838722073960723 L 3.130399179726849 4.723629779285691 M 3.381996096545337 4.149660781689001 L 3.174791084595885 4.282258228960913 L 3.1402941877446557 4.228351233982194 L 3.617034174587705 3.9232693024541376 L 3.6515310714389337 3.977176297432857 L 3.4443260594894816 4.109773744704768 L 3.787138971948569 4.645474507305791 L 3.724809009004425 4.685361544290025 L 3.381996096545337 4.149660781689001 M 3.7136358780151193 3.8264938446386476 L 3.7690684311076628 3.7774710738311708 L 4.2327973441513596 4.301833062544418 L 4.1773647910588165 4.350855833351894 L 3.7136358780151193 3.8264938446386476 M 4.552932032624936 3.918753602151591 Q 4.464907659681504 3.958177069375007 4.371641444602323 3.9472838088528324 Q 4.278375229523142 3.936390548330658 4.197766140724748 3.875536831902715 Q 4.117157051926353 3.814683115474772 4.081129481012069 3.7279694248947015 Q 4.0451019100977845 3.6412557343146306 4.058902072563486 3.545798647014 Q 4.072702235029187 3.450341559713369 4.135363487588653 3.367338141544725 Q 4.198024740148119 3.2843347233760807 4.285047546152668 3.2454081099208274 Q 4.372070352157216 3.2064814964655737 4.46603687815336 3.2172769581146277 Q 4.560003404149502 3.2280724197636808 4.640612492947897 3.288926136191624 Q 4.721221581746292 3.349779852619567 4.757346951533697 3.4371938541166 Q 4.793472321321103 3.5246078556136324 4.7798756160042 3.6189655771022595 Q 4.766278910687299 3.7133232985908866 4.703617658127833 3.796326716759531 Q 4.6409564055683665 3.8793301349281752 4.552932032624936 3.918753602151591 M 4.711390101430383 3.614250251709518 Q 4.721829291239614 3.538182694129911 4.691650447865046 3.4677874711913246 Q 4.661471604490477 3.3973922482527383 4.596026601703661 3.3479862606577746 Q 4.5305815989168465 3.298580273062811 4.45461184021036 3.2888413941705417 Q 4.378642081503874 3.2791025152782725 4.3083446574384086 3.3099816695698028 Q 4.238047233372944 3.3408608238613335 4.188038733734139 3.407103936438232 Q 4.138030234095334 3.473347049015131 4.127289788264182 3.5498136614897797 Q 4.11654934243303 3.6262802739644284 4.146426929785679 3.697074551798056 Q 4.176304517138327 3.767868829631684 4.2417495199251425 3.8172748172266475 Q 4.307194522711958 3.8666808048216113 4.383465537440364 3.876020628818839 Q 4.459736552168771 3.885360452816067 4.5303352322561565 3.8540822436294944 Q 4.600933912343542 3.8228040344429224 4.650942411982347 3.756560921866024 Q 4.700950911621152 3.690317809289125 4.711390101430383 3.614250251709518 M 4.648102051831345 2.360895032315997 L 5.303362481887698 2.607134283456762 L 5.281904490002574 2.6642355495045296 L 4.591910793880642 2.8856688336151066 L 5.123607828554939 3.0854743973978986 L 5.097576822005773 3.1547447857181417 L 4.44231639194942 2.908505534577377 L 4.4637743838345445 2.851404268529609 L 5.154119850315248 2.62903489809038 L 4.6224228156409515 2.429229334307588 L 4.648102051831345 2.360895032315997" fill="#035f73" fill-rule="nonzero"></path></g><g clip-path="url(#SvgjsClipPath1001)"><g clip-path="url(#ad735a5ad-650c-4c08-bab4-c2a76efc56694464cff1-a8ee-4026-8c71-2ad92d7a2b52)"><path d=" M 0.34710590830164395 1.8715219024204282 C 0.44260384996654406 1.7876068582444085 0.5311977751018879 1.7104434240520385 0.6457008130413061 1.614960723041729 L 0.6457008130413061 1.1739419011526109 L 1.018639630874071 0.7996771463704607 L 0 0.7996771463704607 L 0 0.9319660282171466 L 0.34710590830164395 1.0561773631307976 Z" fill="#056d84" transform="matrix(1,0,0,1,0,0)" fill-rule="nonzero"></path></g><g clip-path="url(#ad735a5ad-650c-4c08-bab4-c2a76efc56694464cff1-a8ee-4026-8c71-2ad92d7a2b52)"><path d=" M 3.375744029206626 0.36725405367045905 C 3.049776908822189 0.36725405367045905 2.727894283868041 0.45197685253978237 2.426754189811743 0.571890322858875 C 2.1181918969698077 0.6947604801685501 1.8259523451944393 0.85657050995729 1.5469112002945578 1.03598349579821 C 1.0187767967653871 1.3753928735315846 0.5391686374527886 1.781403911826021 0.07199685228614579 2.1989826069547473 C 0.13263941690227077 2.4693213380833776 0.2308044731205309 2.808806919089705 0.2308044731205309 2.808806919089705 C 0.7737223116026148 2.817311204351278 2.0117206839996524 3.004679811888508 2.904426785991331 3.20248826782032 C 2.929528144102102 2.957509985930501 2.96927577127447 2.514631804181326 2.983403858079986 2.268845767598204 C 3.012574470966456 1.7609966753291646 3.0410744950509376 1.2376173560322712 3.2036313169146187 0.7514404745911103 C 3.2481340283192646 0.618267634778168 3.303808139538843 0.48805148195580833 3.375744029206626 0.36725405367045905" fill="#056d84" transform="matrix(1,0,0,1,0,0)" fill-rule="nonzero"></path></g><g clip-path="url(#ad735a5ad-650c-4c08-bab4-c2a76efc56694464cff1-a8ee-4026-8c71-2ad92d7a2b52)"><path d=" M 3.1671604304792362 1.1743686394811486 C 3.106533106517702 1.4528153988519952 3.0744667692590126 1.7369621630397383 3.054730121564144 2.0208955580632124 C 3.207913940854586 1.693663463347753 3.3499873229484574 1.3549856370347284 3.563524134417803 1.0610696132543904 C 3.663441865913986 0.7335022241379368 3.4503013114639978 0.4047917859271858 3.4503013114639978 0.4047917859271858 C 3.3098281981021427 0.6406866376809878 3.225303527742497 0.9074133336716386 3.1671604304792362 1.1743686394811486" fill="#056d84" transform="matrix(1,0,0,1,0,0)" fill-rule="nonzero"></path></g><g clip-path="url(#ad735a5ad-650c-4c08-bab4-c2a76efc56694464cff1-a8ee-4026-8c71-2ad92d7a2b52)"><path d=" M 2.6057404373241253 0.4229129242354474 L 2.6057404373241253 7.97180596018327e-17 L 1.8733355403167138 7.97180596018327e-17 C 1.6983423443070773 0.1804188690439017 1.5232881856790779 0.36076153481485007 1.3482949896694414 0.5411804038587518 L 0.9287045281347515 0.9736034965587534 C 0.8504742481210378 1.0541808373794248 0.7723201713802769 1.1348191408184587 0.6940898913665625 1.21539648163913 L 0.6940898913665625 1.5948887809458672 C 1.1791846863317887 1.1929012754633572 1.699881650420731 0.8153445392896308 2.275932671982849 0.554424532698011 C 2.3837907845207513 0.5055629940804447 2.49372162608298 0.4612126892217056 2.6057404373241253 0.4229129242354474 M 0.7733260545832585 1.2019389836356023 L 0.7730517228006273 1.4368279521864227 C 0.7595066306667702 1.4487108095301966 0.7459881362236439 1.4606239510067587 0.732496340935043 1.4725672872013775 L 0.732496340935043 1.2429668257935835 Z M 0.8564333440659748 1.1188316941528857 L 0.8561590122833435 1.3651511536466803 C 0.8425795890430904 1.3767340511355604 0.8290001658028372 1.3882407453514876 0.8156188710722625 1.399823642840368 L 0.8156188710722625 1.159905258274639 Z M 0.9364620213213837 1.0387877762428863 L 0.936202930193343 1.29810751410249 C 0.9225473036801367 1.3093398765357858 0.9091050463311992 1.3205874796236723 0.8955865857093085 1.3318960453299211 L 0.8955865857093085 1.0798156184008678 Z M 1.0103487147767674 0.9631636481641704 L 1.010074382994136 1.237800243887359 C 0.9959294242565468 1.2491619959005584 0.9818316972616808 1.2605824248318942 0.9677815665051325 1.2720612354070993 L 0.9677815665051325 1.0058679623271212 Z M 1.0915204411264734 1.1729664992588105 C 1.0760047754242812 1.1851177969195907 1.0605455054476396 1.1973409331548193 1.0451431292072046 1.2096355142038506 L 1.0451431292072046 0.9274395538037291 L 1.0915204411264734 0.8801173212998167 Z M 1.1731036651501265 1.109992114490319 C 1.1581068610329446 1.1214378460878838 1.1431100569157624 1.1328683370308579 1.128189456071534 1.1443902719013754 L 1.128189456071534 0.8424424231517743 L 1.1731036651501265 0.7966747374161065 Z M 1.2641056137107902 1.041744463233469 C 1.2474730936196314 1.0539972725391908 1.230901219552815 1.0663321929052947 1.2143905984361378 1.078748772579532 L 1.2143905984361378 0.7553878041300843 L 1.2641056137107902 0.7056727888554428 Z M 1.3569212001677393 0.9744722138704194 C 1.33896351606466 0.9872476120647999 1.321075800548972 1.0001210773067055 1.3032588553542324 1.0130920326030028 L 1.3032588553542324 0.6635171382577546 L 1.3569212001677393 0.609702386898233 Z M 1.4562293054802975 0.905157716792225 C 1.438277819937792 0.9174403118271832 1.4203901312893832 0.9298158896594817 1.4025669606669173 0.9422839513748414 L 1.4025669606669173 0.5619229347566017 L 1.4562293054802975 0.5081843866700333 Z M 1.5710676378207094 0.8281924111095335 C 1.5504230863897368 0.8416505313998439 1.5298781246702713 0.8552608064855144 1.5094344306561727 0.8690221247578499 L 1.5094344306561727 0.45485733625741187 L 1.5710676378207094 0.3898102224645945 Z M 1.6911182740311177 0.7515623998278358 C 1.6692240490206385 0.7651450094195041 1.6474293315201103 0.7788873662584148 1.625735865837324 0.7927883704954842 L 1.625735865837324 0.33640696877902015 L 1.6911182740311177 0.26901279417924545 Z M 1.8272935227984146 0.6694609935481011 C 1.8015389261264318 0.6845198174428403 1.775888296712941 0.6997557527985657 1.750343457770433 0.7151677166653345 L 1.750343457770433 0.20712049588668874 L 1.8272935227984146 0.1301704308585878 Z M 2.0121321816735995 0.5872224213770508 C 1.9811828144822277 0.6033751620889877 1.950395163918557 0.6198358861527328 1.9197738148543704 0.6366021422506989 L 1.9197738148543704 0.09048376630458205 L 2.0121321816735995 0.09048376630458205 Z M 2.184519225748238 0.5021033654883711 C 2.153574891665451 0.5166277732882711 2.122787003693141 0.5314831832603898 2.092160858929001 0.5466670395113828 L 2.092160858929001 0.09048376630458205 L 2.184519225748238 0.09048376630458205 Z M 2.346634068628791 0.09100194856066353 L 2.346588346665019 0.425077097187317 C 2.3158784276648956 0.4383212260265762 2.2898169083149145 0.4519006492668293 2.259244155206107 0.465952532799392 L 2.259244155206107 0.09100194856066353 Z M 2.5127114817029077 0.3584144740078928 C 2.4817840685383867 0.36967291238319 2.451000555371564 0.3813227878893008 2.4203683555382947 0.39336129498420214 L 2.4203683555382947 0.09048376630458221 L 2.5127114817029077 0.09048376630458221 Z" fill="#0e0904" transform="matrix(1,0,0,1,0,0)" fill-rule="nonzero"></path></g><g clip-path="url(#ad735a5ad-650c-4c08-bab4-c2a76efc56694464cff1-a8ee-4026-8c71-2ad92d7a2b52)"><path d=" M 2.6571776465675083 0.4069864401882366 C 2.8985438933193475 0.3336331696435248 3.170040914196866 0.28469542775300544 3.444707991229236 0.2812205585063413 L 3.444707991229236 -3.188722384073308e-16 L 2.6571776465675083 -3.188722384073308e-16 Z M 2.8249467723011854 0.26300797627053607 C 2.794282575264834 0.2708416727301209 2.767992446095994 0.2792545140641498 2.737617821496864 0.28809409372671635 L 2.737617821496864 0.09039232237703805 L 2.8249467723011854 0.09039232237703805 Z M 2.9975624261946834 0.22556168794135326 C 2.9669333580605692 0.23117699425638694 2.9364112239283986 0.23736068615564612 2.9060118140687634 0.24410956457815133 L 2.9060118140687634 0.09039232237703805 L 2.9975624261946834 0.09039232237703805 Z M 3.1694922506316034 0.2010089933958451 C 3.1388931553511905 0.20415535545439084 3.10836432287616 0.2079511340593922 3.0779263978510834 0.2123937623750472 L 3.0779263978510834 0.09039232237703801 L 3.1694922506316034 0.09039232237703801 Z M 3.3414068344139323 0.19053866369208092 C 3.3108657674295876 0.19103059116867308 3.280340473748066 0.1922400168214453 3.2498562222880123 0.19416593948465113 L 3.2498562222880123 0.09039232237703805 L 3.3414068344139323 0.09039232237703805 Z" fill="#bfbe5f" transform="matrix(1,0,0,1,0,0)" fill-rule="nonzero"></path></g></g><g><path d=" M -2.2507315772754635 1.6012441339101602 A 4.045822694863028 4.045822694863028 0 0 1 5.840913812450593 1.6012441339101602 A 4.045822694863028 4.045822694863028 0 0 1 -2.250731577275463 1.6012441339101602 Z M -2.2007315772754636 1.6012441339101597 A 3.9958226948630275 3.9958226948630275 0 0 0 5.790913812450592 1.6012441339101597 A 3.9958226948630275 3.9958226948630275 0 0 0 -2.200731577275463 1.6012441339101597 Z" fill="#0e0904" fill-rule="nonzero"></path></g><g transform="matrix(0.10699255442313846,-0.9942598218262728,0.9942598218262728,0.10699255442313846,-2.667222182840055,-0.26368252996555563)"><g clip-path="url(#SvgjsClipPath1002)"><path d=" M -1.4798499444024809 1.5864596047116755 C -1.445018401545338 1.5864596047116755 -1.426514144402481 1.564689890425961 -1.426514144402481 1.5342122904259612 C -1.426514144402481 1.5178850047116754 -1.4303238444024808 1.503734690425961 -1.445018401545338 1.4743455761402469 C -1.4656996301167666 1.4335273618545326 -1.4695093301167668 1.420465533283104 -1.4733190301167667 1.3829127761402469 C -1.4466511301167666 1.3856339904259611 -1.4237929301167667 1.3916206618545326 -1.4047444301167666 1.4003285475688183 C -1.3557625729739096 1.4226425047116753 -1.3416122586881951 1.4286291761402468 -1.3209310301167667 1.4286291761402468 C -1.292630401545338 1.4286291761402468 -1.269772201545338 1.4095806761402467 -1.269772201545338 1.3752933761402468 C -1.269772201545338 1.3415503189973896 -1.2920861586881953 1.321957576140247 -1.3209310301167667 1.321957576140247 C -1.3372583158310523 1.321957576140247 -1.357395301545338 1.3279442475688183 -1.3818862301167667 1.3393733475688183 L -1.4047444301167666 1.3502582047116753 C -1.425969901545338 1.3600545761402467 -1.4488281015453381 1.3660412475688182 -1.4733190301167667 1.3687624618545327 C -1.4695093301167668 1.3361078904259611 -1.4608014444024808 1.3072630189973897 -1.4471953729739095 1.2811393618545326 C -1.433589301545338 1.2555599475688182 -1.426514144402481 1.2337902332831039 -1.426514144402481 1.2163744618545325 C -1.426514144402481 1.188073833283104 -1.4428414301167667 1.1652156332831038 -1.4798499444024809 1.1652156332831038 C -1.517402701545338 1.1652156332831038 -1.5342742301167667 1.187529590425961 -1.5342742301167667 1.2163744618545325 C -1.5342742301167667 1.2343344761402468 -1.5299202872596238 1.2457635761402468 -1.5048851158310523 1.3001878618545326 C -1.4961772301167666 1.3192363618545326 -1.4901905586881952 1.3420945618545326 -1.487469344402481 1.3687624618545327 C -1.514137244402481 1.3660412475688182 -1.5413493872596238 1.3578776047116754 -1.5701942586881952 1.3431830475688182 C -1.598495340795338 1.329032733283104 -1.6218977836524808 1.321957576140247 -1.6398577979381952 1.321957576140247 C -1.6681584265096239 1.321957576140247 -1.6910166265096238 1.3410060761402467 -1.6910166265096238 1.3752933761402468 C -1.6910166265096238 1.4095806761402467 -1.6687026693667666 1.4286291761402468 -1.6398577979381952 1.4286291761402468 C -1.6202650550810525 1.4286291761402468 -1.6082917122239095 1.424275233283104 -1.556043944402481 1.4003285475688183 C -1.536995444402481 1.3916206618545326 -1.514137244402481 1.3856339904259611 -1.487469344402481 1.3829127761402469 C -1.4912790444024808 1.4155673475688184 -1.4999869301167665 1.4444122189973898 -1.513593001545338 1.470535876140247 C -1.5271990729739096 1.4961152904259611 -1.5342742301167667 1.5173407618545325 -1.5342742301167667 1.5342122904259612 C -1.5342742301167667 1.5641456475688182 -1.5157699729739096 1.5864596047116755 -1.4798499444024809 1.5864596047116755 Z" fill="#0e0904" transform="matrix(1,0,0,1,0,0)" fill-rule="nonzero"></path></g></g><g transform="matrix(-0.10699255442313846,-0.9942598218262728,-0.9942598218262728,0.10699255442313846,6.9583109532456255,6.249697869188477)"><g clip-path="url(#SvgjsClipPath1003)"><path d=" M 5.071134271363323 1.5864596047116755 C 5.105965814220466 1.5864596047116755 5.124470071363323 1.564689890425961 5.124470071363323 1.5342122904259612 C 5.124470071363323 1.5178850047116754 5.120660371363322 1.503734690425961 5.105965814220466 1.4743455761402469 C 5.0852845856490365 1.4335273618545326 5.081474885649037 1.420465533283104 5.077665185649037 1.3829127761402469 C 5.104333085649037 1.3856339904259611 5.127191285649037 1.3916206618545326 5.146239785649037 1.4003285475688183 C 5.1952216427918945 1.4226425047116753 5.209371957077608 1.4286291761402468 5.230053185649037 1.4286291761402468 C 5.258353814220466 1.4286291761402468 5.281212014220466 1.4095806761402467 5.281212014220466 1.3752933761402468 C 5.281212014220466 1.3415503189973896 5.258898057077609 1.321957576140247 5.230053185649037 1.321957576140247 C 5.213725899934751 1.321957576140247 5.193588914220466 1.3279442475688183 5.169097985649037 1.3393733475688183 L 5.146239785649037 1.3502582047116753 C 5.125014314220466 1.3600545761402467 5.102156114220466 1.3660412475688182 5.077665185649037 1.3687624618545327 C 5.081474885649037 1.3361078904259611 5.090182771363323 1.3072630189973897 5.103788842791894 1.2811393618545326 C 5.1173949142204656 1.2555599475688182 5.124470071363323 1.2337902332831039 5.124470071363323 1.2163744618545325 C 5.124470071363323 1.188073833283104 5.108142785649037 1.1652156332831038 5.071134271363323 1.1652156332831038 C 5.033581514220465 1.1652156332831038 5.016709985649037 1.187529590425961 5.016709985649037 1.2163744618545325 C 5.016709985649037 1.2343344761402468 5.02106392850618 1.2457635761402468 5.046099099934751 1.3001878618545326 C 5.054806985649037 1.3192363618545326 5.060793657077609 1.3420945618545326 5.0635148713633225 1.3687624618545327 C 5.036846971363323 1.3660412475688182 5.009634828506179 1.3578776047116754 4.980789957077608 1.3431830475688182 C 4.952488874970466 1.329032733283104 4.929086432113323 1.321957576140247 4.911126417827608 1.321957576140247 C 4.88282578925618 1.321957576140247 4.85996758925618 1.3410060761402467 4.85996758925618 1.3752933761402468 C 4.85996758925618 1.4095806761402467 4.882281546399037 1.4286291761402468 4.911126417827608 1.4286291761402468 C 4.930719160684752 1.4286291761402468 4.9426925035418945 1.424275233283104 4.994940271363323 1.4003285475688183 C 5.013988771363323 1.3916206618545326 5.036846971363323 1.3856339904259611 5.0635148713633225 1.3829127761402469 C 5.059705171363323 1.4155673475688184 5.050997285649037 1.4444122189973898 5.037391214220466 1.470535876140247 C 5.023785142791894 1.4961152904259611 5.016709985649037 1.5173407618545325 5.016709985649037 1.5342122904259612 C 5.016709985649037 1.5641456475688182 5.035214242791894 1.5864596047116755 5.071134271363323 1.5864596047116755 Z" fill="#0e0904" transform="matrix(1,0,0,1,0,0)" fill-rule="nonzero"></path></g></g></g><defs><clipPath id="SvgjsClipPath1001"><path d=" M 0 0 h 3.590182235175128 v 3.20248826782032 h -3.590182235175128 Z"></path></clipPath><clipPath id="ad735a5ad-650c-4c08-bab4-c2a76efc56694464cff1-a8ee-4026-8c71-2ad92d7a2b52"><path d=" M 8.121872610383321e-17 3.202488267820321 L 3.5901800392968184 3.202488267820321 L 3.5901800392968184 0 L 8.121872610383321e-17 0 Z"></path></clipPath><clipPath id="SvgjsClipPath1002"><path d=" M -1.797875990295338 1.0355044189973897 h 0.63495 v 0.63495 h -0.63495 Z"></path></clipPath><clipPath id="SvgjsClipPath1003"><path d=" M 4.7531082254704655 1.0355044189973897 h 0.63495 v 0.63495 h -0.63495 Z"></path></clipPath></defs></svg>